_________________________  Visit us at _________________________
  
http://p2pdl.com  ____________________________  http://p2pdl.com

 
http://www.shotpix.com/images/88480215554992046008.jpg

Life Of Pi 2012 BRRip 720p x264 AAC - PRiSTiNE

Genre: Adventure | Drama
Plot: A young man who survives a disaster at sea is hurtled into an epic journey of adventure and discovery. 
While cast away, he forms an unexpected connection with another survivor: a fearsome Bengal tiger.
Director: Ang Lee
Stars: Suraj Sharma, Irrfan Khan, Adil Hussain 
Rated: Rated PG for emotional thematic content throughout, and some scary action sequences and peril.

Info: 
http://www.imdb.com/title/tt0454876/

General
Complete name                  : Life Of Pi 2012 BRRip 720p x264 AAC - PRiSTiNE.mp4
Format                         : MPEG-4
Format profile                 : Base Media
File size                      : 683 MiB
Duration                       : 2h 6mn
Overall bit rate mode          : Variable
Overall bit rate               : 752 Kbps

Video
ID                             : 1
Format                         : AVC
Format profile                 : High 10@L4.1
Codec ID/Info                  : Advanced Video Coding
Width                          : 1 280 pixels
Height                         : 688 pixels
Display aspect ratio           : 1.85:1
Frame rate mode                : Constant
Frame rate                     : 23.976 fps
Color space                    : YUV
Chroma subsampling             : 4:2:0
Bit depth                      : 10 bits
Scan type                      : Progressive
Bits/(Pixel*Frame)             : 0.032
Stream size                    : 607 MiB (89%)
Writing library                : x264 core 129 r2245 bc13772

Audio
Format                         : AAC
Bit rate                       : 79.9 Kbps
Channel(s)                     : 2 channels
Channel positions              : Front: L R
Sampling rate                  : 48.0 KHz / 24.0 KHz
Compression mode               : Lossy
Stream size                    : 72.5 MiB (11%)
Language                       : English

Subtitle                       : Yes ( English)


Screens: 
http://www.shotpix.com/images/01521936363221533753.jpg 
http://www.shotpix.com/images/14017408869028728065.jpg 
http://www.shotpix.com/images/37234890032535539795.jpg 
http://www.shotpix.com/images/44493550460159319220.jpg

Thumbs: 
http://www.shotpix.com/images/76182003557452040672.jpg
----------------------------------------------------------------------------------------------------

Recommend to you to use latest version of VLC player. Install K-Lite Codec Pack or shark007 codecs
in case of any kind of problem in playback (For non-VLC Media Player users). Alternatively, install
Core AVC codecs, the fastest decoder that there is coupled with Community Center Codec Pack and play
on Windows Media Player Classic. Check sample to be sure.
Enjoy!

Greets to: VYTO, a2zRG, MusiK_KinG, Kuroyukihime, TorDigger, Ash968, StyLishSaLH, Masta and staff members at
ExtraTorrent, TPB, H33T, KAT, 1337x, PublicHD, Ahashare, BTScene, SilverTorrent, LimeTorrents, TorrentMafia,
P2PDL, and all others.

Encoder Notes: Looking For Early Access To Anything You Can Provide DVDScr, R5, DVDR, BluRay, Direct
Audio, Early Music Releases, Seedboxes, Dedicated Servers anything u can provide, Advance / Promo CDs/
DVDs. If You Got anything to offer contact me at "prg@hush.com".